<mxfile host="app.diagrams.net" modified="2021-01-06T15:51:44.599Z" agent="5.0 (Windows NT 10.0; Win64; x64) AppleWebKit/537.36 (KHTML, like Gecko) Chrome/86.0.4240.75 Safari/537.36" etag="OvxyNLgtrk4tQWyf4vZb" version="14.1.3" type="github">
  <diagram id="fNJBSluz4KYfc8517oGM" name="Page-1">
    <mxGraphModel dx="868" dy="450" grid="1" gridSize="10" guides="1" tooltips="1" connect="1" arrows="1" fold="1" page="1" pageScale="1" pageWidth="827" pageHeight="1169" math="0" shadow="0">
      <root>
        <mxCell id="0" />
        <mxCell id="1" parent="0" />
        <mxCell id="ngJ-TszgHhptk_CEjQcl-1" value="" style="shape=table;html=1;whiteSpace=wrap;startSize=0;container=1;collapsible=0;childLayout=tableLayout;" vertex="1" parent="1">
          <mxGeometry x="130" y="200" width="70" height="120" as="geometry" />
        </mxCell>
        <mxCell id="ngJ-TszgHhptk_CEjQcl-2" value="" style="shape=partialRectangle;html=1;whiteSpace=wrap;collapsible=0;dropTarget=0;pointerEvents=0;fillColor=none;top=0;left=0;bottom=0;right=0;points=[[0,0.5],[1,0.5]];portConstraint=eastwest;" vertex="1" parent="ngJ-TszgHhptk_CEjQcl-1">
          <mxGeometry width="70" height="40" as="geometry" />
        </mxCell>
        <mxCell id="ngJ-TszgHhptk_CEjQcl-3" value="dict" style="shape=partialRectangle;html=1;whiteSpace=wrap;connectable=0;fillColor=#ffe6cc;top=0;left=0;bottom=0;right=0;overflow=hidden;strokeColor=#d79b00;" vertex="1" parent="ngJ-TszgHhptk_CEjQcl-2">
          <mxGeometry width="70" height="40" as="geometry" />
        </mxCell>
        <mxCell id="ngJ-TszgHhptk_CEjQcl-6" value="" style="shape=partialRectangle;html=1;whiteSpace=wrap;collapsible=0;dropTarget=0;pointerEvents=0;fillColor=none;top=0;left=0;bottom=0;right=0;points=[[0,0.5],[1,0.5]];portConstraint=eastwest;" vertex="1" parent="ngJ-TszgHhptk_CEjQcl-1">
          <mxGeometry y="40" width="70" height="40" as="geometry" />
        </mxCell>
        <mxCell id="ngJ-TszgHhptk_CEjQcl-7" value="ht[2]" style="shape=partialRectangle;html=1;whiteSpace=wrap;connectable=0;fillColor=#dae8fc;top=0;left=0;bottom=0;right=0;overflow=hidden;strokeColor=#6c8ebf;" vertex="1" parent="ngJ-TszgHhptk_CEjQcl-6">
          <mxGeometry width="70" height="40" as="geometry" />
        </mxCell>
        <mxCell id="ngJ-TszgHhptk_CEjQcl-10" value="" style="shape=partialRectangle;html=1;whiteSpace=wrap;collapsible=0;dropTarget=0;pointerEvents=0;fillColor=none;top=0;left=0;bottom=0;right=0;points=[[0,0.5],[1,0.5]];portConstraint=eastwest;" vertex="1" parent="ngJ-TszgHhptk_CEjQcl-1">
          <mxGeometry y="80" width="70" height="40" as="geometry" />
        </mxCell>
        <mxCell id="ngJ-TszgHhptk_CEjQcl-11" value="rehashidx" style="shape=partialRectangle;html=1;whiteSpace=wrap;connectable=0;fillColor=#dae8fc;top=0;left=0;bottom=0;right=0;overflow=hidden;strokeColor=#6c8ebf;" vertex="1" parent="ngJ-TszgHhptk_CEjQcl-10">
          <mxGeometry width="70" height="40" as="geometry" />
        </mxCell>
        <mxCell id="ngJ-TszgHhptk_CEjQcl-16" value="" style="shape=table;html=1;whiteSpace=wrap;startSize=0;container=1;collapsible=0;childLayout=tableLayout;" vertex="1" parent="1">
          <mxGeometry x="320" y="30" width="70" height="230" as="geometry" />
        </mxCell>
        <mxCell id="ngJ-TszgHhptk_CEjQcl-25" style="shape=partialRectangle;html=1;whiteSpace=wrap;collapsible=0;dropTarget=0;pointerEvents=0;fillColor=none;top=0;left=0;bottom=0;right=0;points=[[0,0.5],[1,0.5]];portConstraint=eastwest;" vertex="1" parent="ngJ-TszgHhptk_CEjQcl-16">
          <mxGeometry width="70" height="46" as="geometry" />
        </mxCell>
        <mxCell id="ngJ-TszgHhptk_CEjQcl-26" value="dictht&amp;nbsp;" style="shape=partialRectangle;html=1;whiteSpace=wrap;connectable=0;fillColor=#ffe6cc;top=0;left=0;bottom=0;right=0;overflow=hidden;strokeColor=#d79b00;" vertex="1" parent="ngJ-TszgHhptk_CEjQcl-25">
          <mxGeometry width="70" height="46" as="geometry" />
        </mxCell>
        <mxCell id="ngJ-TszgHhptk_CEjQcl-17" value="" style="shape=partialRectangle;html=1;whiteSpace=wrap;collapsible=0;dropTarget=0;pointerEvents=0;fillColor=none;top=0;left=0;bottom=0;right=0;points=[[0,0.5],[1,0.5]];portConstraint=eastwest;" vertex="1" parent="ngJ-TszgHhptk_CEjQcl-16">
          <mxGeometry y="46" width="70" height="46" as="geometry" />
        </mxCell>
        <mxCell id="ngJ-TszgHhptk_CEjQcl-18" value="table" style="shape=partialRectangle;html=1;whiteSpace=wrap;connectable=0;fillColor=#dae8fc;top=0;left=0;bottom=0;right=0;overflow=hidden;strokeColor=#6c8ebf;" vertex="1" parent="ngJ-TszgHhptk_CEjQcl-17">
          <mxGeometry width="70" height="46" as="geometry" />
        </mxCell>
        <mxCell id="ngJ-TszgHhptk_CEjQcl-19" value="" style="shape=partialRectangle;html=1;whiteSpace=wrap;collapsible=0;dropTarget=0;pointerEvents=0;fillColor=none;top=0;left=0;bottom=0;right=0;points=[[0,0.5],[1,0.5]];portConstraint=eastwest;" vertex="1" parent="ngJ-TszgHhptk_CEjQcl-16">
          <mxGeometry y="92" width="70" height="46" as="geometry" />
        </mxCell>
        <mxCell id="ngJ-TszgHhptk_CEjQcl-20" value="size&lt;br&gt;4" style="shape=partialRectangle;html=1;whiteSpace=wrap;connectable=0;fillColor=#dae8fc;top=0;left=0;bottom=0;right=0;overflow=hidden;strokeColor=#6c8ebf;" vertex="1" parent="ngJ-TszgHhptk_CEjQcl-19">
          <mxGeometry width="70" height="46" as="geometry" />
        </mxCell>
        <mxCell id="ngJ-TszgHhptk_CEjQcl-21" value="" style="shape=partialRectangle;html=1;whiteSpace=wrap;collapsible=0;dropTarget=0;pointerEvents=0;fillColor=none;top=0;left=0;bottom=0;right=0;points=[[0,0.5],[1,0.5]];portConstraint=eastwest;" vertex="1" parent="ngJ-TszgHhptk_CEjQcl-16">
          <mxGeometry y="138" width="70" height="46" as="geometry" />
        </mxCell>
        <mxCell id="ngJ-TszgHhptk_CEjQcl-22" value="sizemask&lt;br&gt;3" style="shape=partialRectangle;html=1;whiteSpace=wrap;connectable=0;fillColor=#dae8fc;top=0;left=0;bottom=0;right=0;overflow=hidden;strokeColor=#6c8ebf;" vertex="1" parent="ngJ-TszgHhptk_CEjQcl-21">
          <mxGeometry width="70" height="46" as="geometry" />
        </mxCell>
        <mxCell id="ngJ-TszgHhptk_CEjQcl-23" style="shape=partialRectangle;html=1;whiteSpace=wrap;collapsible=0;dropTarget=0;pointerEvents=0;fillColor=none;top=0;left=0;bottom=0;right=0;points=[[0,0.5],[1,0.5]];portConstraint=eastwest;" vertex="1" parent="ngJ-TszgHhptk_CEjQcl-16">
          <mxGeometry y="184" width="70" height="46" as="geometry" />
        </mxCell>
        <mxCell id="ngJ-TszgHhptk_CEjQcl-24" value="used&lt;br&gt;2" style="shape=partialRectangle;html=1;whiteSpace=wrap;connectable=0;fillColor=#dae8fc;top=0;left=0;bottom=0;right=0;overflow=hidden;strokeColor=#6c8ebf;" vertex="1" parent="ngJ-TszgHhptk_CEjQcl-23">
          <mxGeometry width="70" height="46" as="geometry" />
        </mxCell>
        <mxCell id="ngJ-TszgHhptk_CEjQcl-27" value="" style="shape=table;html=1;whiteSpace=wrap;startSize=0;container=1;collapsible=0;childLayout=tableLayout;" vertex="1" parent="1">
          <mxGeometry x="320" y="390" width="70" height="276" as="geometry" />
        </mxCell>
        <mxCell id="ngJ-TszgHhptk_CEjQcl-28" style="shape=partialRectangle;html=1;whiteSpace=wrap;collapsible=0;dropTarget=0;pointerEvents=0;fillColor=none;top=0;left=0;bottom=0;right=0;points=[[0,0.5],[1,0.5]];portConstraint=eastwest;" vertex="1" parent="ngJ-TszgHhptk_CEjQcl-27">
          <mxGeometry width="70" height="46" as="geometry" />
        </mxCell>
        <mxCell id="ngJ-TszgHhptk_CEjQcl-29" value="dictht&amp;nbsp;" style="shape=partialRectangle;html=1;whiteSpace=wrap;connectable=0;fillColor=#ffe6cc;top=0;left=0;bottom=0;right=0;overflow=hidden;strokeColor=#d79b00;" vertex="1" parent="ngJ-TszgHhptk_CEjQcl-28">
          <mxGeometry width="70" height="46" as="geometry" />
        </mxCell>
        <mxCell id="ngJ-TszgHhptk_CEjQcl-79" style="shape=partialRectangle;html=1;whiteSpace=wrap;collapsible=0;dropTarget=0;pointerEvents=0;fillColor=none;top=0;left=0;bottom=0;right=0;points=[[0,0.5],[1,0.5]];portConstraint=eastwest;" vertex="1" parent="ngJ-TszgHhptk_CEjQcl-27">
          <mxGeometry y="46" width="70" height="46" as="geometry" />
        </mxCell>
        <mxCell id="ngJ-TszgHhptk_CEjQcl-80" value="dictht&amp;nbsp;" style="shape=partialRectangle;html=1;whiteSpace=wrap;connectable=0;fillColor=#dae8fc;top=0;left=0;bottom=0;right=0;overflow=hidden;strokeColor=#6c8ebf;" vertex="1" parent="ngJ-TszgHhptk_CEjQcl-79">
          <mxGeometry width="70" height="46" as="geometry" />
        </mxCell>
        <mxCell id="ngJ-TszgHhptk_CEjQcl-30" value="" style="shape=partialRectangle;html=1;whiteSpace=wrap;collapsible=0;dropTarget=0;pointerEvents=0;fillColor=none;top=0;left=0;bottom=0;right=0;points=[[0,0.5],[1,0.5]];portConstraint=eastwest;" vertex="1" parent="ngJ-TszgHhptk_CEjQcl-27">
          <mxGeometry y="92" width="70" height="46" as="geometry" />
        </mxCell>
        <mxCell id="ngJ-TszgHhptk_CEjQcl-31" value="table" style="shape=partialRectangle;html=1;whiteSpace=wrap;connectable=0;fillColor=#dae8fc;top=0;left=0;bottom=0;right=0;overflow=hidden;strokeColor=#6c8ebf;" vertex="1" parent="ngJ-TszgHhptk_CEjQcl-30">
          <mxGeometry width="70" height="46" as="geometry" />
        </mxCell>
        <mxCell id="ngJ-TszgHhptk_CEjQcl-32" value="" style="shape=partialRectangle;html=1;whiteSpace=wrap;collapsible=0;dropTarget=0;pointerEvents=0;fillColor=none;top=0;left=0;bottom=0;right=0;points=[[0,0.5],[1,0.5]];portConstraint=eastwest;" vertex="1" parent="ngJ-TszgHhptk_CEjQcl-27">
          <mxGeometry y="138" width="70" height="46" as="geometry" />
        </mxCell>
        <mxCell id="ngJ-TszgHhptk_CEjQcl-33" value="size&lt;br&gt;0" style="shape=partialRectangle;html=1;whiteSpace=wrap;connectable=0;fillColor=#dae8fc;top=0;left=0;bottom=0;right=0;overflow=hidden;strokeColor=#6c8ebf;" vertex="1" parent="ngJ-TszgHhptk_CEjQcl-32">
          <mxGeometry width="70" height="46" as="geometry" />
        </mxCell>
        <mxCell id="ngJ-TszgHhptk_CEjQcl-34" value="" style="shape=partialRectangle;html=1;whiteSpace=wrap;collapsible=0;dropTarget=0;pointerEvents=0;fillColor=none;top=0;left=0;bottom=0;right=0;points=[[0,0.5],[1,0.5]];portConstraint=eastwest;" vertex="1" parent="ngJ-TszgHhptk_CEjQcl-27">
          <mxGeometry y="184" width="70" height="46" as="geometry" />
        </mxCell>
        <mxCell id="ngJ-TszgHhptk_CEjQcl-35" value="sizemask&lt;br&gt;0" style="shape=partialRectangle;html=1;whiteSpace=wrap;connectable=0;fillColor=#dae8fc;top=0;left=0;bottom=0;right=0;overflow=hidden;strokeColor=#6c8ebf;" vertex="1" parent="ngJ-TszgHhptk_CEjQcl-34">
          <mxGeometry width="70" height="46" as="geometry" />
        </mxCell>
        <mxCell id="ngJ-TszgHhptk_CEjQcl-36" style="shape=partialRectangle;html=1;whiteSpace=wrap;collapsible=0;dropTarget=0;pointerEvents=0;fillColor=none;top=0;left=0;bottom=0;right=0;points=[[0,0.5],[1,0.5]];portConstraint=eastwest;" vertex="1" parent="ngJ-TszgHhptk_CEjQcl-27">
          <mxGeometry y="230" width="70" height="46" as="geometry" />
        </mxCell>
        <mxCell id="ngJ-TszgHhptk_CEjQcl-37" value="used&lt;br&gt;0" style="shape=partialRectangle;html=1;whiteSpace=wrap;connectable=0;fillColor=#dae8fc;top=0;left=0;bottom=0;right=0;overflow=hidden;strokeColor=#6c8ebf;" vertex="1" parent="ngJ-TszgHhptk_CEjQcl-36">
          <mxGeometry width="70" height="46" as="geometry" />
        </mxCell>
        <mxCell id="ngJ-TszgHhptk_CEjQcl-38" style="rounded=0;orthogonalLoop=1;jettySize=auto;html=1;exitX=1;exitY=0.5;exitDx=0;exitDy=0;entryX=0;entryY=0.5;entryDx=0;entryDy=0;" edge="1" parent="1" source="ngJ-TszgHhptk_CEjQcl-6" target="ngJ-TszgHhptk_CEjQcl-25">
          <mxGeometry relative="1" as="geometry" />
        </mxCell>
        <mxCell id="ngJ-TszgHhptk_CEjQcl-39" style="edgeStyle=none;rounded=0;orthogonalLoop=1;jettySize=auto;html=1;exitX=1;exitY=0.5;exitDx=0;exitDy=0;entryX=0.014;entryY=0.68;entryDx=0;entryDy=0;entryPerimeter=0;" edge="1" parent="1" source="ngJ-TszgHhptk_CEjQcl-6" target="ngJ-TszgHhptk_CEjQcl-28">
          <mxGeometry relative="1" as="geometry" />
        </mxCell>
        <mxCell id="ngJ-TszgHhptk_CEjQcl-40" value="" style="shape=table;html=1;whiteSpace=wrap;startSize=0;container=1;collapsible=0;childLayout=tableLayout;" vertex="1" parent="1">
          <mxGeometry x="460" y="20" width="70" height="230" as="geometry" />
        </mxCell>
        <mxCell id="ngJ-TszgHhptk_CEjQcl-41" style="shape=partialRectangle;html=1;whiteSpace=wrap;collapsible=0;dropTarget=0;pointerEvents=0;fillColor=none;top=0;left=0;bottom=0;right=0;points=[[0,0.5],[1,0.5]];portConstraint=eastwest;" vertex="1" parent="ngJ-TszgHhptk_CEjQcl-40">
          <mxGeometry width="70" height="46" as="geometry" />
        </mxCell>
        <mxCell id="ngJ-TszgHhptk_CEjQcl-42" value="dictEntry[4]" style="shape=partialRectangle;html=1;whiteSpace=wrap;connectable=0;fillColor=#ffe6cc;top=0;left=0;bottom=0;right=0;overflow=hidden;strokeColor=#d79b00;" vertex="1" parent="ngJ-TszgHhptk_CEjQcl-41">
          <mxGeometry width="70" height="46" as="geometry" />
        </mxCell>
        <mxCell id="ngJ-TszgHhptk_CEjQcl-43" value="" style="shape=partialRectangle;html=1;whiteSpace=wrap;collapsible=0;dropTarget=0;pointerEvents=0;fillColor=none;top=0;left=0;bottom=0;right=0;points=[[0,0.5],[1,0.5]];portConstraint=eastwest;" vertex="1" parent="ngJ-TszgHhptk_CEjQcl-40">
          <mxGeometry y="46" width="70" height="46" as="geometry" />
        </mxCell>
        <mxCell id="ngJ-TszgHhptk_CEjQcl-44" value="0" style="shape=partialRectangle;html=1;whiteSpace=wrap;connectable=0;fillColor=#dae8fc;top=0;left=0;bottom=0;right=0;overflow=hidden;strokeColor=#6c8ebf;" vertex="1" parent="ngJ-TszgHhptk_CEjQcl-43">
          <mxGeometry width="70" height="46" as="geometry" />
        </mxCell>
        <mxCell id="ngJ-TszgHhptk_CEjQcl-45" value="" style="shape=partialRectangle;html=1;whiteSpace=wrap;collapsible=0;dropTarget=0;pointerEvents=0;fillColor=none;top=0;left=0;bottom=0;right=0;points=[[0,0.5],[1,0.5]];portConstraint=eastwest;" vertex="1" parent="ngJ-TszgHhptk_CEjQcl-40">
          <mxGeometry y="92" width="70" height="46" as="geometry" />
        </mxCell>
        <mxCell id="ngJ-TszgHhptk_CEjQcl-46" value="1" style="shape=partialRectangle;html=1;whiteSpace=wrap;connectable=0;fillColor=#dae8fc;top=0;left=0;bottom=0;right=0;overflow=hidden;strokeColor=#6c8ebf;" vertex="1" parent="ngJ-TszgHhptk_CEjQcl-45">
          <mxGeometry width="70" height="46" as="geometry" />
        </mxCell>
        <mxCell id="ngJ-TszgHhptk_CEjQcl-47" value="" style="shape=partialRectangle;html=1;whiteSpace=wrap;collapsible=0;dropTarget=0;pointerEvents=0;fillColor=none;top=0;left=0;bottom=0;right=0;points=[[0,0.5],[1,0.5]];portConstraint=eastwest;" vertex="1" parent="ngJ-TszgHhptk_CEjQcl-40">
          <mxGeometry y="138" width="70" height="46" as="geometry" />
        </mxCell>
        <mxCell id="ngJ-TszgHhptk_CEjQcl-48" value="2" style="shape=partialRectangle;html=1;whiteSpace=wrap;connectable=0;fillColor=#dae8fc;top=0;left=0;bottom=0;right=0;overflow=hidden;strokeColor=#6c8ebf;" vertex="1" parent="ngJ-TszgHhptk_CEjQcl-47">
          <mxGeometry width="70" height="46" as="geometry" />
        </mxCell>
        <mxCell id="ngJ-TszgHhptk_CEjQcl-49" style="shape=partialRectangle;html=1;whiteSpace=wrap;collapsible=0;dropTarget=0;pointerEvents=0;fillColor=none;top=0;left=0;bottom=0;right=0;points=[[0,0.5],[1,0.5]];portConstraint=eastwest;" vertex="1" parent="ngJ-TszgHhptk_CEjQcl-40">
          <mxGeometry y="184" width="70" height="46" as="geometry" />
        </mxCell>
        <mxCell id="ngJ-TszgHhptk_CEjQcl-50" value="3" style="shape=partialRectangle;html=1;whiteSpace=wrap;connectable=0;fillColor=#dae8fc;top=0;left=0;bottom=0;right=0;overflow=hidden;strokeColor=#6c8ebf;" vertex="1" parent="ngJ-TszgHhptk_CEjQcl-49">
          <mxGeometry width="70" height="46" as="geometry" />
        </mxCell>
        <mxCell id="ngJ-TszgHhptk_CEjQcl-51" value="h[0]" style="text;html=1;strokeColor=none;fillColor=none;align=center;verticalAlign=middle;whiteSpace=wrap;rounded=0;" vertex="1" parent="1">
          <mxGeometry x="200" y="135" width="40" height="20" as="geometry" />
        </mxCell>
        <mxCell id="ngJ-TszgHhptk_CEjQcl-52" value="h[1]" style="text;html=1;strokeColor=none;fillColor=none;align=center;verticalAlign=middle;whiteSpace=wrap;rounded=0;" vertex="1" parent="1">
          <mxGeometry x="220" y="390" width="40" height="20" as="geometry" />
        </mxCell>
        <mxCell id="ngJ-TszgHhptk_CEjQcl-53" value="" style="shape=table;html=1;whiteSpace=wrap;startSize=0;container=1;collapsible=0;childLayout=tableLayout;" vertex="1" parent="1">
          <mxGeometry x="610" y="15" width="70" height="120" as="geometry" />
        </mxCell>
        <mxCell id="ngJ-TszgHhptk_CEjQcl-54" style="shape=partialRectangle;html=1;whiteSpace=wrap;collapsible=0;dropTarget=0;pointerEvents=0;fillColor=none;top=0;left=0;bottom=0;right=0;points=[[0,0.5],[1,0.5]];portConstraint=eastwest;" vertex="1" parent="ngJ-TszgHhptk_CEjQcl-53">
          <mxGeometry width="70" height="40" as="geometry" />
        </mxCell>
        <mxCell id="ngJ-TszgHhptk_CEjQcl-55" value="dictEntry" style="shape=partialRectangle;html=1;whiteSpace=wrap;connectable=0;fillColor=#ffe6cc;top=0;left=0;bottom=0;right=0;overflow=hidden;strokeColor=#d79b00;" vertex="1" parent="ngJ-TszgHhptk_CEjQcl-54">
          <mxGeometry width="70" height="40" as="geometry" />
        </mxCell>
        <mxCell id="ngJ-TszgHhptk_CEjQcl-56" value="" style="shape=partialRectangle;html=1;whiteSpace=wrap;collapsible=0;dropTarget=0;pointerEvents=0;fillColor=none;top=0;left=0;bottom=0;right=0;points=[[0,0.5],[1,0.5]];portConstraint=eastwest;" vertex="1" parent="ngJ-TszgHhptk_CEjQcl-53">
          <mxGeometry y="40" width="70" height="40" as="geometry" />
        </mxCell>
        <mxCell id="ngJ-TszgHhptk_CEjQcl-57" value="key" style="shape=partialRectangle;html=1;whiteSpace=wrap;connectable=0;fillColor=#dae8fc;top=0;left=0;bottom=0;right=0;overflow=hidden;strokeColor=#6c8ebf;" vertex="1" parent="ngJ-TszgHhptk_CEjQcl-56">
          <mxGeometry width="70" height="40" as="geometry" />
        </mxCell>
        <mxCell id="ngJ-TszgHhptk_CEjQcl-58" value="" style="shape=partialRectangle;html=1;whiteSpace=wrap;collapsible=0;dropTarget=0;pointerEvents=0;fillColor=none;top=0;left=0;bottom=0;right=0;points=[[0,0.5],[1,0.5]];portConstraint=eastwest;" vertex="1" parent="ngJ-TszgHhptk_CEjQcl-53">
          <mxGeometry y="80" width="70" height="40" as="geometry" />
        </mxCell>
        <mxCell id="ngJ-TszgHhptk_CEjQcl-59" value="value" style="shape=partialRectangle;html=1;whiteSpace=wrap;connectable=0;fillColor=#dae8fc;top=0;left=0;bottom=0;right=0;overflow=hidden;strokeColor=#6c8ebf;" vertex="1" parent="ngJ-TszgHhptk_CEjQcl-58">
          <mxGeometry width="70" height="40" as="geometry" />
        </mxCell>
        <mxCell id="ngJ-TszgHhptk_CEjQcl-64" value="" style="shape=table;html=1;whiteSpace=wrap;startSize=0;container=1;collapsible=0;childLayout=tableLayout;" vertex="1" parent="1">
          <mxGeometry x="610" y="200" width="70" height="120" as="geometry" />
        </mxCell>
        <mxCell id="ngJ-TszgHhptk_CEjQcl-65" style="shape=partialRectangle;html=1;whiteSpace=wrap;collapsible=0;dropTarget=0;pointerEvents=0;fillColor=none;top=0;left=0;bottom=0;right=0;points=[[0,0.5],[1,0.5]];portConstraint=eastwest;" vertex="1" parent="ngJ-TszgHhptk_CEjQcl-64">
          <mxGeometry width="70" height="40" as="geometry" />
        </mxCell>
        <mxCell id="ngJ-TszgHhptk_CEjQcl-66" value="dictEntry" style="shape=partialRectangle;html=1;whiteSpace=wrap;connectable=0;fillColor=#ffe6cc;top=0;left=0;bottom=0;right=0;overflow=hidden;strokeColor=#d79b00;" vertex="1" parent="ngJ-TszgHhptk_CEjQcl-65">
          <mxGeometry width="70" height="40" as="geometry" />
        </mxCell>
        <mxCell id="ngJ-TszgHhptk_CEjQcl-67" value="" style="shape=partialRectangle;html=1;whiteSpace=wrap;collapsible=0;dropTarget=0;pointerEvents=0;fillColor=none;top=0;left=0;bottom=0;right=0;points=[[0,0.5],[1,0.5]];portConstraint=eastwest;" vertex="1" parent="ngJ-TszgHhptk_CEjQcl-64">
          <mxGeometry y="40" width="70" height="40" as="geometry" />
        </mxCell>
        <mxCell id="ngJ-TszgHhptk_CEjQcl-68" value="key" style="shape=partialRectangle;html=1;whiteSpace=wrap;connectable=0;fillColor=#dae8fc;top=0;left=0;bottom=0;right=0;overflow=hidden;strokeColor=#6c8ebf;" vertex="1" parent="ngJ-TszgHhptk_CEjQcl-67">
          <mxGeometry width="70" height="40" as="geometry" />
        </mxCell>
        <mxCell id="ngJ-TszgHhptk_CEjQcl-69" value="" style="shape=partialRectangle;html=1;whiteSpace=wrap;collapsible=0;dropTarget=0;pointerEvents=0;fillColor=none;top=0;left=0;bottom=0;right=0;points=[[0,0.5],[1,0.5]];portConstraint=eastwest;" vertex="1" parent="ngJ-TszgHhptk_CEjQcl-64">
          <mxGeometry y="80" width="70" height="40" as="geometry" />
        </mxCell>
        <mxCell id="ngJ-TszgHhptk_CEjQcl-70" value="value" style="shape=partialRectangle;html=1;whiteSpace=wrap;connectable=0;fillColor=#dae8fc;top=0;left=0;bottom=0;right=0;overflow=hidden;strokeColor=#6c8ebf;" vertex="1" parent="ngJ-TszgHhptk_CEjQcl-69">
          <mxGeometry width="70" height="40" as="geometry" />
        </mxCell>
        <mxCell id="ngJ-TszgHhptk_CEjQcl-71" style="edgeStyle=none;rounded=0;orthogonalLoop=1;jettySize=auto;html=1;exitX=1;exitY=0.5;exitDx=0;exitDy=0;entryX=0;entryY=0.5;entryDx=0;entryDy=0;" edge="1" parent="1" source="ngJ-TszgHhptk_CEjQcl-43" target="ngJ-TszgHhptk_CEjQcl-54">
          <mxGeometry relative="1" as="geometry" />
        </mxCell>
        <mxCell id="ngJ-TszgHhptk_CEjQcl-72" style="edgeStyle=none;rounded=0;orthogonalLoop=1;jettySize=auto;html=1;exitX=1;exitY=0.5;exitDx=0;exitDy=0;entryX=0;entryY=0.5;entryDx=0;entryDy=0;" edge="1" parent="1" source="ngJ-TszgHhptk_CEjQcl-47" target="ngJ-TszgHhptk_CEjQcl-65">
          <mxGeometry relative="1" as="geometry" />
        </mxCell>
        <mxCell id="ngJ-TszgHhptk_CEjQcl-73" value="NULL" style="text;html=1;strokeColor=none;fillColor=none;align=center;verticalAlign=middle;whiteSpace=wrap;rounded=0;" vertex="1" parent="1">
          <mxGeometry x="625" y="160" width="40" height="20" as="geometry" />
        </mxCell>
        <mxCell id="ngJ-TszgHhptk_CEjQcl-75" style="edgeStyle=none;rounded=0;orthogonalLoop=1;jettySize=auto;html=1;exitX=1;exitY=0.5;exitDx=0;exitDy=0;entryX=0;entryY=0.5;entryDx=0;entryDy=0;" edge="1" parent="1" source="ngJ-TszgHhptk_CEjQcl-45" target="ngJ-TszgHhptk_CEjQcl-73">
          <mxGeometry relative="1" as="geometry" />
        </mxCell>
        <mxCell id="ngJ-TszgHhptk_CEjQcl-76" style="edgeStyle=none;rounded=0;orthogonalLoop=1;jettySize=auto;html=1;exitX=1;exitY=0.5;exitDx=0;exitDy=0;entryX=0;entryY=0.75;entryDx=0;entryDy=0;" edge="1" parent="1" source="ngJ-TszgHhptk_CEjQcl-49">
          <mxGeometry relative="1" as="geometry">
            <mxPoint x="625" y="365" as="targetPoint" />
          </mxGeometry>
        </mxCell>
        <mxCell id="ngJ-TszgHhptk_CEjQcl-77" value="NULL" style="text;html=1;strokeColor=none;fillColor=none;align=center;verticalAlign=middle;whiteSpace=wrap;rounded=0;" vertex="1" parent="1">
          <mxGeometry x="630" y="360" width="40" height="20" as="geometry" />
        </mxCell>
        <mxCell id="ngJ-TszgHhptk_CEjQcl-78" style="edgeStyle=none;rounded=0;orthogonalLoop=1;jettySize=auto;html=1;exitX=1;exitY=0.5;exitDx=0;exitDy=0;entryX=0;entryY=0.5;entryDx=0;entryDy=0;" edge="1" parent="1" source="ngJ-TszgHhptk_CEjQcl-17" target="ngJ-TszgHhptk_CEjQcl-41">
          <mxGeometry relative="1" as="geometry" />
        </mxCell>
      </root>
    </mxGraphModel>
  </diagram>
</mxfile>
